<svg width="37" height="27" viewBox="0 0 37 27" fill="none" xmlns="http://www.w3.org/2000/svg">
<path fill-rule="evenodd" clip-rule="evenodd" d="M36.4167 12.6041V14.3958C36.4167 14.8905 36.0156 15.2916 35.5208 15.2916H1.47917C0.984411 15.2916 0.583333 14.8905 0.583333 14.3958V12.6041C0.583333 12.1093 0.984411 11.7083 1.47917 11.7083H35.5208C36.0156 11.7083 36.4167 12.1093 36.4167 12.6041ZM1.47917 22.4583H35.484C35.9788 22.4583 36.3799 22.8593 36.3799 23.3541V25.1458C36.3799 25.6405 35.9788 26.0416 35.484 26.0416H1.47917C0.984411 26.0416 0.583333 25.6405 0.583333 25.1458V23.3541C0.583333 22.8593 0.984411 22.4583 1.47917 22.4583ZM1.47917 0.958252H35.4802C35.9749 0.958252 36.376 1.35933 36.376 1.85409V3.64575C36.376 4.14051 35.9749 4.54159 35.4802 4.54159H1.47917C0.984411 4.54159 0.583333 4.14051 0.583333 3.64575V1.85409C0.583333 1.35933 0.984411 0.958252 1.47917 0.958252Z" fill="#63B6E2"/>
</svg>
