<svg width="26" height="26" viewBox="0 0 26 26" fill="none" xmlns="http://www.w3.org/2000/svg">
<path d="M25.2886 2L24 0.711358C23.642 0.353377 23.0616 0.353377 22.7036 0.711358L13 10.4149L3.29637 0.711357C2.93839 0.353376 2.35798 0.353376 2 0.711357L0.711366 1.99999C0.353385 2.35797 0.353385 2.93838 0.711366 3.29636L10.415 12.9999L0.711375 22.7036C0.353394 23.0616 0.353394 23.642 0.711375 24L2.00001 25.2886C2.35799 25.6466 2.93839 25.6466 3.29637 25.2886L13 15.5849L22.7037 25.2886C23.0616 25.6466 23.642 25.6466 24 25.2886L25.2887 23.9999C25.6466 23.642 25.6466 23.0616 25.2887 22.7036L15.585 12.9999L25.2886 3.29636C25.6466 2.93838 25.6466 2.35798 25.2886 2Z" fill="#63B6E2"/>
</svg>
