<svg width="512" height="512" viewBox="0 0 512 512" fill="none" xmlns="http://www.w3.org/2000/svg">
<g clip-path="url(#clip0_101_429)">
<path d="M301.245 255.999L502.624 54.6425C515.125 42.142 515.125 21.8749 502.624 9.37537C490.124 -3.12512 469.856 -3.12512 457.357 9.37537L255.999 210.753L54.6425 9.37537C42.142 -3.12512 21.8749 -3.12512 9.37537 9.37537C-3.12412 21.8759 -3.12512 42.143 9.37537 54.6425L210.753 255.999L9.37537 457.357C-3.12512 469.857 -3.12512 490.125 9.37537 502.624C21.8759 515.124 42.143 515.125 54.6425 502.624L255.999 301.245L457.356 502.624C469.856 515.125 490.124 515.125 502.623 502.624C515.124 490.124 515.124 469.856 502.623 457.357L301.245 255.999Z" fill="black"/>
</g>
<defs>
<clipPath id="clip0_101_429">
<rect width="512" height="512" fill="white"/>
</clipPath>
</defs>
</svg>
