<svg width="512" height="512" viewBox="0 0 512 512" fill="none" xmlns="http://www.w3.org/2000/svg">
<g clip-path="url(#clip0_101_436)">
<path d="M373.333 19.5625C349.311 19.9362 325.812 26.642 305.211 39.003C284.609 51.3639 267.634 68.9421 256 89.9625C244.365 68.9421 227.39 51.3639 206.789 39.003C186.187 26.642 162.689 19.9362 138.666 19.5625C100.372 21.2263 64.2922 37.9786 38.3098 66.1595C12.3274 94.3403 -1.44558 131.659 -0.000238753 169.963C-0.000238753 314.496 233.728 481.429 243.669 488.512L256 497.237L268.33 488.512C278.272 481.472 512 314.496 512 169.963C513.445 131.659 499.672 94.3403 473.69 66.1595C447.707 37.9786 411.628 21.2263 373.333 19.5625V19.5625Z" fill="black"/>
</g>
<defs>
<clipPath id="clip0_101_436">
<rect width="512" height="512" fill="white"/>
</clipPath>
</defs>
</svg>
